<?xml version="1.0" standalone="no"?>
<!DOCTYPE svg PUBLIC "-//W3C//DTD SVG 20010904//EN"
 "http://www.w3.org/TR/2001/REC-SVG-20010904/DTD/svg10.dtd">
<svg version="1.0" xmlns="http://www.w3.org/2000/svg"
 width="480.000000pt" height="360.000000pt" viewBox="0 0 480.000000 360.000000"
 preserveAspectRatio="xMidYMid meet">

<g transform="translate(0.000000,360.000000) scale(0.100000,-0.100000)"
fill="#000000" stroke="none">
<path d="M1835 3189 c-282 -13 -336 -22 -440 -73 -146 -72 -193 -130 -351
-433 -38 -73 -74 -133 -80 -133 -6 0 -17 7 -24 15 -28 34 -97 42 -254 30
l-149 -11 -28 -32 c-26 -29 -29 -40 -29 -98 0 -59 3 -68 28 -94 33 -32 53 -37
205 -46 l108 -6 -66 -33 c-164 -83 -272 -206 -319 -364 -14 -47 -16 -123 -16
-538 0 -339 3 -491 11 -506 20 -38 51 -66 80 -72 l29 -7 0 -127 c0 -152 17
-200 85 -238 37 -21 53 -23 195 -23 142 0 158 2 194 23 25 14 48 39 63 66 20
39 23 58 23 168 l0 123 1300 0 1300 0 0 -123 c0 -110 3 -129 23 -168 15 -27
38 -52 63 -66 36 -21 52 -23 194 -23 142 0 158 2 195 23 68 38 85 86 85 238
l0 127 29 7 c29 6 60 34 80 72 8 15 11 167 11 506 0 415 -2 491 -16 538 -47
158 -155 281 -319 363 l-66 34 118 7 c193 11 223 30 223 141 0 56 -3 68 -29
96 l-28 32 -149 11 c-157 12 -226 4 -254 -30 -7 -8 -18 -15 -24 -15 -6 0 -54
82 -106 181 -52 99 -114 205 -138 235 -92 117 -213 185 -364 203 -230 29 -987
39 -1393 20z m1240 -149 c72 -6 152 -15 178 -21 72 -17 160 -80 211 -152 45
-65 281 -505 274 -512 -2 -3 -53 0 -114 5 -476 41 -1972 41 -2448 0 -61 -5
-112 -8 -114 -5 -3 2 56 118 129 256 212 400 236 416 650 439 210 11 1064 5
1234 -10z m-2096 -1180 c301 -55 325 -64 365 -133 49 -86 51 -160 5 -201 l-32
-28 -106 6 c-58 3 -197 9 -308 12 -224 7 -244 13 -284 76 -17 29 -19 47 -17
144 3 119 13 144 63 165 29 12 18 13 314 -41z m3183 21 l33 -29 3 -114 c2 -99
0 -117 -17 -146 -40 -63 -60 -69 -284 -76 -111 -3 -250 -9 -308 -12 l-106 -6
-32 28 c-46 41 -44 115 5 201 40 69 65 78 355 132 145 27 276 49 291 50 17 1
40 -10 60 -28z"/>
</g>
</svg>
