<?xml version="1.0" standalone="no"?>
<!DOCTYPE svg PUBLIC "-//W3C//DTD SVG 20010904//EN"
 "http://www.w3.org/TR/2001/REC-SVG-20010904/DTD/svg10.dtd">
<svg version="1.0" xmlns="http://www.w3.org/2000/svg"
 width="1200.000000pt" height="676.000000pt" viewBox="0 0 1200.000000 676.000000"
 preserveAspectRatio="xMidYMid meet">

<g transform="translate(0.000000,676.000000) scale(0.100000,-0.100000)"
fill="#000000" stroke="none">
<path d="M4575 4321 l-110 -6 124 -7 c246 -15 405 -50 546 -118 111 -54 229
-155 477 -409 213 -217 284 -281 315 -281 4 0 -35 44 -87 98 -52 53 -120 123
-150 155 l-55 57 45 -15 c25 -9 137 -62 249 -118 173 -86 209 -109 240 -146
l36 -44 -67 6 c-51 5 -69 3 -78 -8 -10 -13 -7 -16 18 -21 28 -6 30 -9 25 -39
-5 -29 0 -40 43 -85 27 -28 66 -62 89 -75 39 -23 181 -56 234 -54 14 0 -15 9
-66 19 -114 23 -150 40 -219 103 -65 59 -78 80 -65 105 8 16 43 17 565 12 323
-3 557 -1 559 4 2 5 14 3 27 -4 22 -11 23 -11 10 2 -15 15 -254 158 -264 158
-3 0 -29 14 -57 31 -160 94 -506 266 -649 322 -91 36 -251 91 -355 122 -105
31 -212 65 -240 75 -95 36 5 23 123 -15 59 -18 175 -55 257 -81 83 -26 188
-64 235 -84 47 -21 126 -55 175 -75 104 -42 452 -223 693 -362 l167 -95 85 -5
85 -5 -40 36 c-22 19 -49 38 -60 42 -11 4 -116 65 -234 136 -300 181 -666 362
-724 357 -39 -3 -54 2 -33 10 13 5 -43 28 -190 77 -188 62 -205 69 -166 72 44
3 159 -32 437 -135 188 -69 510 -233 700 -358 44 -28 103 -64 130 -80 28 -16
94 -57 147 -91 l97 -63 133 0 c125 -1 131 0 103 15 -16 8 -46 28 -65 45 -25
21 -14 17 38 -16 53 -34 80 -45 103 -43 30 3 29 4 -33 41 -34 21 -94 58 -133
83 -38 24 -140 86 -225 137 -481 289 -675 374 -1121 488 -97 24 -285 58 -384
68 -60 7 -150 16 -200 22 -49 5 -137 12 -195 15 -58 3 -148 10 -200 16 -112
11 -687 18 -845 9z m722 -57 c-3 -3 -12 -4 -19 -1 -8 3 -5 6 6 6 11 1 17 -2
13 -5z m98 -41 c116 -17 118 -18 60 -21 -33 -2 -96 1 -140 7 -44 6 -104 13
-134 16 -30 3 -57 7 -59 10 -12 12 162 4 273 -12z m263 10 c-10 -2 -28 -2 -40
0 -13 2 -5 4 17 4 22 1 32 -1 23 -4z m145 -114 c48 -12 85 -24 83 -26 -6 -6
-176 36 -196 48 -18 12 -17 12 113 -22z m715 -20 c45 -18 81 -33 79 -35 -1 -1
-42 8 -90 20 -83 22 -117 36 -86 36 12 0 11 2 -1 11 -19 14 -12 12 98 -32z
m495 -136 c93 -47 167 -86 165 -88 -2 -2 -89 39 -193 92 -105 52 -179 92 -165
88 14 -4 101 -46 193 -92z m-797 23 c66 -22 157 -65 142 -66 -8 0 -210 80
-217 86 -8 8 6 4 75 -20z m578 -6 c25 -12 46 -25 46 -30 0 -6 -2 -10 -5 -10
-13 0 -95 45 -95 52 0 11 1 11 54 -12z m436 -136 c0 -2 -9 0 -20 6 -11 6 -20
13 -20 16 0 2 9 0 20 -6 11 -6 20 -13 20 -16z m-123 -36 c40 -23 71 -43 69
-46 -6 -5 -106 45 -137 69 -41 32 -8 21 68 -23z m-494 -108 c31 -17 57 -34 57
-36 0 -9 -156 74 -180 96 -27 24 -23 22 123 -60z m767 54 c0 -2 -9 0 -20 6
-11 6 -20 13 -20 16 0 2 9 0 20 -6 11 -6 20 -13 20 -16z m-599 -31 c49 -26 89
-51 89 -55 0 -7 -166 77 -184 94 -22 19 12 5 95 -39z m729 -50 c0 -7 -39 17
-46 28 -3 6 5 3 20 -6 14 -10 26 -19 26 -22z m95 -61 c-3 -3 -11 0 -18 7 -9
10 -8 11 6 5 10 -3 15 -9 12 -12z m-95 -58 c0 -9 -77 35 -91 52 -7 9 10 2 39
-16 28 -17 52 -34 52 -36z m160 21 c19 -14 29 -25 23 -25 -7 0 -18 6 -25 13
-7 7 -22 18 -33 25 -11 6 -15 12 -9 12 5 0 25 -11 44 -25z m-1360 -91 l25 -15
-30 6 c-16 4 -34 11 -39 16 -16 15 16 10 44 -7z m929 -20 c14 -12 -19 -1 -35
12 -18 14 -18 14 6 3 14 -6 27 -13 29 -15z"/>
<path d="M4276 4219 c-577 -21 -1007 -145 -1545 -446 -177 -98 -208 -122 -227
-170 -15 -38 -15 -45 0 -97 10 -35 25 -61 39 -70 17 -11 92 -15 337 -20 718
-14 1156 -30 1680 -61 260 -16 662 -38 985 -55 99 -6 205 -12 235 -15 30 -2
61 -4 68 -5 7 0 11 -4 8 -8 -3 -5 2 -27 10 -51 8 -23 17 -89 21 -147 l6 -105
-64 6 c-35 3 -107 10 -159 16 -87 9 -368 34 -650 59 -163 14 -696 57 -880 71
-136 10 -159 14 -191 35 -19 13 -39 24 -44 24 -5 0 -21 12 -36 26 -23 22 -36
26 -81 25 -30 0 -67 -5 -82 -11 -15 -5 -46 -10 -69 -10 -28 0 -51 -7 -70 -23
-23 -18 -38 -21 -82 -19 l-55 4 33 45 c17 25 47 59 66 75 18 16 31 31 28 34
-2 3 -38 -31 -78 -74 l-74 -79 -135 8 c-492 31 -776 41 -1125 41 -214 1 -422
-3 -461 -7 l-71 -7 -8 34 c-4 18 -7 43 -6 56 3 31 -12 28 -26 -6 -7 -15 -35
-44 -63 -65 -68 -51 -92 -101 -98 -203 -2 -45 0 -89 5 -98 8 -15 12 -15 39 6
l29 23 -23 -32 c-12 -17 -22 -36 -22 -42 0 -6 -4 -10 -9 -9 -18 6 -72 -72 -87
-127 -8 -28 -25 -92 -29 -110 -3 -11 -10 -42 -16 -69 -8 -33 -8 -50 -1 -55 6
-3 10 -34 10 -68 -1 -34 -4 -60 -8 -58 -4 3 -10 -22 -14 -55 -4 -33 -11 -62
-16 -65 -15 -9 -12 -41 5 -55 8 -7 15 -20 14 -29 0 -12 -2 -11 -9 4 -10 22 -3
-58 7 -85 3 -8 5 -26 4 -40 -1 -18 1 -21 7 -12 7 11 10 9 15 -7 3 -13 1 -19
-5 -14 -8 4 -9 -5 -5 -27 4 -18 7 -41 7 -52 0 -13 14 -25 46 -38 90 -39 355
-130 378 -130 20 0 25 -10 45 -82 27 -101 78 -210 129 -274 55 -71 55 -70 14
-72 -47 -3 -110 -20 -116 -31 -3 -5 9 -14 27 -21 52 -19 81 -33 97 -46 15 -12
110 -28 230 -39 36 -3 218 -10 405 -15 415 -12 528 -19 1250 -75 314 -25 662
-51 775 -60 113 -8 394 -28 625 -45 988 -72 1245 -95 1479 -135 361 -62 693
-79 1591 -79 599 -1 759 2 955 17 670 51 1034 101 1191 164 84 33 31 60 -196
98 -82 13 -215 31 -294 39 -79 9 -145 17 -147 19 -2 2 24 12 58 21 81 23 168
69 227 121 45 41 49 42 166 59 65 9 125 22 132 28 7 5 39 11 72 11 56 2 63 -1
95 -32 42 -40 76 -37 76 8 0 27 4 29 58 40 56 11 82 25 82 44 0 4 -4 6 -9 2
-10 -5 -51 40 -51 57 0 5 10 4 23 -2 l22 -11 -22 17 c-31 22 -29 44 2 44 32 0
31 7 -2 38 l-28 25 29 -7 29 -7 -6 100 c-4 69 -2 127 8 183 19 108 19 114 0
98 -12 -10 -14 -24 -10 -54 6 -41 -18 -106 -40 -110 -18 -2 -17 42 2 76 17 32
28 172 11 145 -4 -6 -8 -19 -8 -27 0 -8 -7 -28 -16 -45 -9 -17 -16 -57 -16
-91 -1 -59 -2 -60 -20 -42 -10 10 -34 18 -55 19 -67 2 -76 4 -80 17 -3 6 0 12
6 12 6 0 11 6 11 14 0 25 18 28 40 6 l20 -20 0 25 c0 18 5 25 19 25 11 0 21
-8 23 -17 2 -10 3 51 2 135 -1 84 -4 156 -7 159 -3 3 -36 0 -74 -5 -113 -18
-207 -22 -454 -22 -233 0 -308 5 -441 33 -37 8 -66 11 -63 8 2 -4 -5 -22 -15
-39 -17 -27 -26 -32 -58 -32 -51 0 -403 43 -647 79 -350 52 -445 79 -616 175
-77 44 -82 45 -109 31 -33 -17 -54 -19 -45 -5 3 6 15 10 25 10 10 0 21 4 24 9
4 5 -20 9 -52 8 -55 -1 -102 12 -187 49 -22 10 -48 17 -57 15 -9 -1 -29 5 -43
15 -15 10 -25 12 -25 5 0 -20 -14 -12 -90 55 -41 36 -102 84 -135 107 l-60 42
65 12 c36 7 115 15 175 19 l110 6 45 -31 c25 -17 88 -62 140 -101 104 -77 292
-175 410 -214 99 -33 241 -61 441 -87 215 -27 249 -24 326 29 72 51 104 61
188 59 63 -2 85 5 47 15 -12 4 -23 22 -31 54 -7 27 -15 57 -18 67 -3 12 2 17
19 18 23 1 23 1 -2 9 -23 7 -22 8 10 9 84 4 132 11 149 23 16 11 9 13 -48 16
-106 4 -212 20 -431 63 -113 22 -224 42 -248 45 -23 2 -109 15 -190 30 -187
33 -194 34 -337 38 -180 4 -670 -34 -806 -63 -27 -6 -50 -2 -106 21 -132 52
-187 63 -333 62 -107 -1 -149 -6 -205 -23 -46 -14 -73 -17 -79 -11 -6 6 -33
10 -60 10 -88 0 -300 55 -292 75 3 9 -5 10 -30 5 -32 -7 -48 3 -21 13 9 4 9 6
0 6 -6 1 -15 -3 -18 -9 -3 -5 -16 -10 -28 -10 -18 0 -19 2 -7 11 12 8 9 10
-13 6 -15 -2 -30 0 -33 5 -3 4 -9 6 -14 3 -5 -3 -30 4 -56 17 -34 15 -49 18
-52 10 -5 -16 -39 -15 -46 1 -4 9 -8 9 -11 1 -3 -7 -14 -10 -23 -7 -9 2 -55 7
-102 11 -75 6 -85 9 -88 27 -1 11 -7 61 -13 110 -16 146 -30 184 -98 274 -34
45 -60 85 -57 90 3 5 0 8 -7 7 -7 0 -64 58 -127 129 -151 173 -338 359 -430
427 -160 119 -337 181 -554 194 -50 3 -102 6 -116 8 -14 1 -119 -1 -234 -5z
m1124 -523 c0 -2 -18 -16 -40 -31 -50 -35 -57 -57 -31 -94 12 -16 21 -34 21
-41 0 -6 4 -9 9 -6 6 4 31 -34 31 -49 0 -2 -18 -6 -39 -10 -29 -5 -49 -1 -79
14 -46 23 -151 37 -304 41 -206 4 -195 0 -154 61 29 42 108 81 211 102 61 14
375 24 375 13z m-1630 -507 c30 -5 75 -11 100 -14 27 -4 53 -14 65 -27 l20
-21 -20 8 c-50 18 -181 45 -223 46 -26 0 -56 4 -67 9 -28 11 55 11 125 -1z
m-1803 -19 c24 -6 93 -12 155 -15 218 -8 381 -29 558 -69 93 -22 279 -84 253
-85 -12 -1 -24 -5 -27 -9 -3 -5 9 -6 27 -4 27 4 30 3 17 -10 -8 -8 -36 -24
-61 -36 -51 -25 -169 -31 -213 -11 -19 9 -31 8 -58 -6 -18 -9 -64 -19 -103
-22 -38 -3 -74 -9 -80 -13 -5 -4 -32 -11 -60 -15 -27 -4 -57 -13 -65 -20 -13
-12 -31 -12 -115 1 -54 8 -101 17 -103 19 -3 3 0 10 5 17 7 9 4 18 -9 31 -10
9 -18 14 -18 10 0 -3 -9 2 -20 12 -15 14 -20 15 -21 4 0 -10 -2 -10 -6 -2 -9
24 -29 -9 -25 -44 6 -46 -15 -43 -36 7 -9 22 -23 40 -29 40 -7 0 -13 5 -13 10
0 6 -16 18 -35 27 -19 9 -35 20 -35 24 0 4 -11 10 -24 13 -14 3 -35 21 -47 39
-13 17 -26 34 -30 37 -14 10 2 59 17 53 8 -3 20 -1 27 5 11 9 44 15 112 20 11
1 39 -3 62 -8z m-277 -52 c0 -45 -9 -48 -12 -5 -2 24 -4 25 -17 12 -13 -12
-12 -18 3 -48 22 -39 86 -86 86 -62 0 8 -8 16 -17 16 -17 1 -17 2 -1 6 25 6
57 -26 38 -37 -11 -7 -11 -11 -1 -24 16 -19 3 -21 -36 -5 -67 28 -91 44 -108
75 -17 32 -17 35 -1 53 10 11 19 28 21 38 2 10 4 19 4 21 1 1 10 2 21 2 17 0
20 -7 20 -42z m-140 17 c-7 -8 -22 -15 -34 -15 -21 1 -21 1 -2 15 27 21 53 20
36 0z m2025 -15 c3 -5 1 -10 -4 -10 -6 0 -11 5 -11 10 0 6 2 10 4 10 3 0 8 -4
11 -10z m223 -31 c2 -5 11 -3 21 3 13 8 23 8 37 0 16 -9 16 -11 3 -12 -9 0
-22 -7 -29 -15 -16 -20 -79 -19 -130 1 -33 13 -38 19 -29 30 8 10 26 12 68 7
31 -3 57 -10 59 -14z m-165 4 c-7 -2 -19 -2 -25 0 -7 3 -2 5 12 5 14 0 19 -2
13 -5z m-1923 -43 c0 -5 -2 -10 -4 -10 -3 0 -8 5 -11 10 -3 6 -1 10 4 10 6 0
11 -4 11 -10z m1697 -112 c-3 -8 -6 -5 -6 6 -1 11 2 17 5 13 3 -3 4 -12 1 -19z
m-10 -110 c-2 -18 -4 -6 -4 27 0 33 2 48 4 33 2 -15 2 -42 0 -60z m5076 -51
c-3 -5 -2 -7 3 -4 6 3 28 2 50 -3 21 -5 71 -11 109 -13 39 -3 90 -13 115 -22
25 -9 101 -27 170 -41 69 -14 143 -29 165 -35 40 -9 111 -22 238 -41 46 -7 67
-14 67 -24 0 -17 -5 -17 -88 0 -152 32 -189 39 -222 42 -69 7 -207 26 -294 40
-49 8 -118 14 -152 14 -75 0 -86 -13 -85 -94 0 -71 3 -85 14 -83 5 1 12 -4 15
-12 3 -8 0 -11 -7 -7 -13 9 -3 -24 14 -40 16 -16 83 -22 89 -8 3 7 -13 14 -45
18 -51 7 -64 20 -29 29 11 3 20 0 20 -6 0 -7 5 -4 11 6 6 11 22 17 44 17 19 0
35 4 35 9 0 5 3 16 6 24 3 10 -3 18 -18 23 l-23 7 23 8 c26 10 29 44 5 58 -13
7 7 8 62 4 44 -3 82 -10 83 -14 2 -5 13 -9 24 -9 14 0 18 -5 14 -15 -4 -12 3
-15 32 -14 24 0 31 3 20 7 -15 6 -12 10 13 25 30 17 31 17 24 0 -20 -49 -27
-87 -16 -91 13 -4 15 -29 2 -34 -4 -1 -2 -24 6 -50 13 -46 15 -48 51 -47 l37
1 -37 10 c-21 6 -38 15 -38 20 0 6 6 8 14 5 8 -3 20 1 26 9 7 8 25 14 41 14
22 0 29 5 29 19 0 11 -9 23 -21 26 l-21 7 21 15 c12 8 21 26 22 41 l0 27 10
-25 c13 -32 5 -110 -17 -155 -15 -32 -20 -35 -58 -35 -23 0 -47 5 -53 11 -5 5
-28 11 -51 12 -47 3 -78 27 -91 71 -7 24 -9 26 -10 9 -1 -12 -5 -24 -11 -28
-5 -3 -8 7 -7 22 2 23 -2 28 -23 30 -43 2 -46 5 -10 12 29 5 36 11 38 34 2 15
-1 27 -7 27 -6 0 -11 5 -11 10 0 6 7 10 15 10 8 0 15 5 15 10 0 6 -13 10 -29
10 -16 0 -36 3 -44 6 -12 4 -15 -9 -19 -70 -3 -59 -8 -82 -27 -106 -12 -17
-21 -33 -19 -34 1 -2 26 -8 53 -14 l50 -11 -45 5 c-61 7 -168 31 -269 61 -110
32 -190 83 -131 83 11 0 20 -4 20 -10 0 -5 11 -10 25 -10 18 0 23 4 19 15 -4
8 -19 15 -35 15 -72 0 -174 35 -220 76 -8 8 -21 14 -27 14 -6 0 -14 5 -18 11
-7 12 114 8 151 -5 17 -6 17 -5 -2 6 -12 7 -22 18 -22 23 0 6 -17 13 -38 16
-21 3 -47 10 -57 14 -15 7 -17 5 -11 -6 8 -12 6 -12 -8 0 -10 8 -27 11 -43 7
-19 -5 -42 1 -80 20 -30 15 -54 31 -54 36 0 8 39 11 150 13 30 1 94 5 141 9
71 6 87 5 92 -7 4 -10 22 -15 57 -16 31 0 49 3 45 9 -3 6 3 10 15 10 12 0 18
4 15 10 -3 6 1 7 9 4 9 -3 13 -11 9 -17z m-2223 -112 c47 -4 88 -9 92 -12 12
-7 -23 -53 -39 -53 -9 0 -30 9 -47 20 -22 13 -58 21 -117 25 -135 9 -189 16
-189 23 0 9 190 7 300 -3z m2827 9 c-3 -3 -12 -4 -19 -1 -8 3 -5 6 6 6 11 1
17 -2 13 -5z m153 -19 c16 -9 19 -14 9 -15 -8 0 -24 7 -35 15 -24 18 -7 19 26
0z m-650 -80 c10 -12 10 -15 -4 -15 -9 0 -16 7 -16 15 0 8 2 15 4 15 2 0 9 -7
16 -15z m590 -5 c0 -12 -7 -20 -17 -21 -14 0 -13 -2 4 -9 15 -6 21 -15 17 -24
-5 -13 -9 -13 -30 1 -29 18 -30 30 -6 54 23 24 32 23 32 -1z m45 0 c-3 -5 -11
-10 -16 -10 -6 0 -7 5 -4 10 3 6 11 10 16 10 6 0 7 -4 4 -10z m85 -5 c7 -8 23
-15 36 -15 12 0 26 -4 29 -10 3 -5 11 -10 17 -10 7 0 6 5 -1 14 -8 10 -9 16
-1 21 5 3 12 0 14 -7 2 -7 9 -28 15 -47 16 -50 15 -51 -34 -51 -51 0 -84 -14
-164 -71 -52 -38 -82 -46 -115 -33 -12 4 5 20 58 56 61 41 83 50 132 55 41 4
68 13 87 29 l29 24 -39 2 c-21 1 -45 2 -53 4 -8 1 -37 2 -63 3 -34 1 -47 5
-44 14 2 6 16 11 30 10 19 -1 24 2 20 13 -7 19 31 19 47 -1z m-7090 -34 c16
-4 -1 -7 -45 -7 -44 0 -61 3 -45 7 14 4 34 7 45 7 11 0 31 -3 45 -7z m91 -39
c62 -40 118 -107 161 -193 38 -77 69 -201 67 -266 -2 -33 -3 -34 -6 -8 -12 94
-38 198 -65 258 -17 37 -34 67 -39 67 -8 0 -68 -149 -70 -172 0 -8 -2 -8 -5
-2 -2 5 7 49 21 97 14 48 25 95 25 105 -1 17 -22 52 -33 52 -10 0 -39 -60 -58
-120 -10 -30 -18 -47 -18 -37 -1 14 21 99 45 177 4 11 -10 25 -43 43 -26 14
-43 27 -37 27 5 0 30 -13 55 -28z m-231 14 c0 -2 -7 -7 -16 -10 -8 -3 -12 -2
-9 4 6 10 25 14 25 6z m-50 -31 c-10 -12 -5 -28 25 -87 21 -40 46 -88 57 -105
41 -68 6 -30 -52 58 -61 89 -74 98 -94 66 -14 -22 5 -74 61 -162 l44 -70 -37
40 c-19 22 -50 64 -67 93 -20 32 -37 50 -45 47 -19 -7 25 52 71 97 39 38 60
51 37 23z m5275 -57 c225 -113 345 -279 381 -528 18 -130 17 -219 -5 -325 -26
-119 -53 -191 -104 -267 -188 -284 -507 -336 -748 -122 -27 24 -47 44 -43 44
3 0 28 -20 56 -45 47 -42 131 -89 173 -97 18 -3 21 4 26 60 10 99 22 95 34
-10 6 -50 10 -59 31 -64 39 -10 51 1 58 53 18 119 36 128 36 17 l0 -76 38 6
c115 20 268 136 339 257 51 86 51 81 -21 124 -70 41 -136 92 -136 105 0 4 28
-7 63 -25 76 -40 144 -62 157 -49 4 5 11 25 15 45 l7 36 -99 63 c-115 74 -108
69 -101 75 2 3 50 -14 107 -36 56 -23 105 -38 109 -34 16 16 4 249 -17 329
-23 88 -109 259 -131 264 -9 1 -26 -18 -44 -50 -50 -92 -98 -169 -102 -165 -2
2 19 58 46 124 28 67 50 128 50 135 0 8 -12 25 -26 39 l-26 24 -27 -33 c-16
-18 -46 -71 -67 -117 -21 -46 -42 -84 -46 -85 -11 0 27 120 61 192 17 37 31
71 31 76 0 14 -70 49 -134 67 -87 25 -212 17 -294 -20 -34 -15 -62 -33 -62
-39 0 -6 34 -67 75 -135 41 -69 73 -126 70 -129 -3 -3 -6 -3 -8 -1 -2 2 -41
55 -87 117 -46 61 -89 112 -95 112 -6 0 -22 -11 -34 -24 l-22 -24 22 -53 c13
-29 47 -86 76 -127 30 -41 52 -79 50 -85 -4 -13 -89 88 -148 174 l-41 61 -25
-39 c-35 -52 -50 -66 -27 -24 53 95 184 203 298 243 78 28 243 21 311 -14z
m1592 -34 c2 -7 -6 -10 -22 -7 -14 3 -25 10 -25 15 0 13 43 6 47 -8z m-855
-10 c24 -15 138 -296 138 -340 0 -18 -69 -19 -74 -1 -25 80 -65 178 -102 249
-25 49 -42 93 -39 98 6 10 58 5 77 -6z m-1852 -3 c0 -10 -24 -21 -48 -21 -13
0 -12 3 4 15 21 16 44 19 44 6z m-2593 -273 c-3 -8 -6 -5 -6 6 -1 11 2 17 5
13 3 -3 4 -12 1 -19z m10 -40 c-3 -8 -6 -5 -6 6 -1 11 2 17 5 13 3 -3 4 -12 1
-19z m5019 -23 c4 -8 0 -23 -7 -32 -12 -14 -12 -16 1 -8 8 5 27 8 42 7 16 -1
30 4 36 14 13 23 151 23 247 2 39 -9 106 -24 150 -34 44 -9 85 -20 90 -23 6
-3 33 -14 60 -23 28 -10 37 -15 20 -13 -61 10 -314 25 -415 25 -87 0 -112 -4
-143 -20 -46 -25 -69 -20 -96 23 -11 18 -28 42 -37 54 -8 12 -13 27 -9 33 10
15 55 12 61 -5z m-6339 -21 c11 5 13 2 9 -10 -3 -8 -6 -20 -6 -25 0 -5 -7 -9
-15 -9 -8 0 -15 -9 -15 -21 0 -11 -4 -17 -10 -14 -5 3 -10 15 -10 26 0 10 5
19 10 19 6 0 11 15 11 33 1 18 3 24 6 14 3 -12 10 -16 20 -13z m4617 -20 c8
-60 8 -172 0 -213 -5 -23 -11 -30 -28 -29 -11 1 -32 -2 -45 -6 l-24 -8 7 76
c8 87 42 209 56 201 6 -3 7 1 4 9 -4 10 -1 16 9 16 9 0 16 -15 21 -46z m-297
-46 c-3 -8 -6 -5 -6 6 -1 11 2 17 5 13 3 -3 4 -12 1 -19z m378 12 c3 -5 1 -10
-4 -10 -6 0 -11 5 -11 10 0 6 2 10 4 10 3 0 8 -4 11 -10z m-4465 -31 c0 -16
-4 -28 -9 -25 -8 5 -3 56 5 56 2 0 4 -14 4 -31z m-535 3 c-103 -42 -140 -66
-146 -97 -6 -27 -7 -28 -8 -5 -1 14 -4 35 -7 47 -6 23 -9 21 116 58 64 19 94
17 45 -3z m552 -39 c-3 -10 -5 -2 -5 17 0 19 2 27 5 18 2 -10 2 -26 0 -35z
m4060 -5 c-3 -7 -5 -2 -5 12 0 14 2 19 5 13 2 -7 2 -19 0 -25z m-4116 0 c31
-15 48 -29 49 -41 0 -30 -33 -163 -37 -149 -7 19 -20 14 -28 -10 -7 -22 -8
-21 -12 7 -3 17 -19 45 -36 63 l-32 34 40 -17 c58 -25 79 -24 83 3 2 14 -1 21
-9 20 -6 -2 -14 3 -16 10 -3 8 1 10 11 6 30 -11 16 11 -31 53 -55 48 -50 53
18 21z m4456 -20 c-3 -7 -5 -2 -5 12 0 14 2 19 5 13 2 -7 2 -19 0 -25z m-339
-190 c4 -3 48 4 97 18 90 24 158 32 140 16 -6 -5 -44 -21 -85 -36 -41 -14 -90
-35 -109 -47 -31 -18 -33 -23 -26 -57 4 -20 11 -40 17 -43 5 -3 48 2 96 12 48
10 91 14 95 9 5 -4 -30 -23 -78 -41 -58 -23 -90 -41 -95 -54 -6 -16 -12 -5
-28 50 -29 96 -42 187 -40 270 l2 70 3 -80 c2 -44 7 -83 11 -87z m-4648 104
c-78 -39 -96 -44 -102 -32 -11 24 -9 40 5 35 6 -2 44 7 82 19 112 38 118 30
15 -22z m5280 32 c0 -11 6 -14 20 -9 14 5 20 2 20 -9 0 -9 -4 -16 -10 -16 -5
0 -7 -7 -4 -15 5 -11 -1 -15 -20 -15 -23 0 -26 -3 -20 -25 7 -29 -2 -32 -28
-8 -24 22 -23 43 3 43 18 0 20 5 16 35 -4 25 -1 35 9 35 8 0 14 -7 14 -16z
m2715 -4 c3 -5 1 -10 -4 -10 -6 0 -11 5 -11 10 0 6 2 10 4 10 3 0 8 -4 11 -10z
m-2995 -26 c0 -14 -4 -23 -10 -19 -5 3 -10 15 -10 26 0 10 5 19 10 19 6 0 10
-12 10 -26z m235 16 c3 -5 1 -10 -4 -10 -6 0 -11 5 -11 10 0 6 2 10 4 10 3 0
8 -4 11 -10z m2670 -13 c-54 -21 -75 -41 -117 -107 -39 -62 -42 -64 -52 -41
-9 20 -6 27 21 51 17 15 34 37 38 49 11 35 54 61 99 60 l41 -1 -30 -11z
m-5805 -53 c63 -7 123 -13 132 -13 25 -1 14 -41 -19 -69 -24 -20 -35 -23 -83
-18 -30 4 -105 11 -167 16 -111 10 -238 38 -291 66 -15 7 -33 14 -39 14 -7 0
-13 5 -13 11 0 14 334 10 480 -7z m185 -54 c3 -5 -3 -10 -14 -10 -12 0 -21 5
-21 10 0 6 6 10 14 10 8 0 18 -4 21 -10z m-1776 -70 c-62 -116 -145 -187 -240
-204 -43 -8 -129 9 -155 30 -18 14 -18 14 3 5 12 -6 26 -11 31 -11 6 0 17 35
25 78 l14 77 2 -82 c1 -81 2 -83 26 -83 20 0 25 6 31 38 18 103 22 109 23 35
1 -83 6 -86 73 -52 57 29 120 97 159 173 18 36 35 63 37 61 2 -2 -11 -31 -29
-65z m4501 50 c0 -11 -4 -20 -9 -20 -5 0 -7 9 -4 20 3 11 7 20 9 20 2 0 4 -9
4 -20z m-40 -22 c0 -7 -65 -28 -87 -28 -7 0 -13 10 -13 21 0 19 4 21 34 16 26
-4 36 -2 41 11 5 14 7 14 15 2 6 -8 10 -18 10 -22z m2710 -37 c0 -21 -75 -91
-96 -91 -21 0 -84 -33 -78 -41 2 -4 17 -1 32 7 15 7 34 14 42 13 8 0 3 -5 -12
-11 -36 -13 -35 -23 2 -38 17 -7 30 -15 30 -19 0 -11 -136 -110 -171 -125 -19
-8 -63 -17 -99 -21 -91 -9 -384 12 -420 30 -26 14 -70 60 -70 74 0 3 73 6 163
6 151 1 166 3 224 27 35 14 61 23 59 19 -2 -3 12 -6 32 -6 26 0 37 5 37 15 0
9 13 17 35 21 l35 5 -47 8 c-27 5 -48 12 -48 17 0 11 15 11 65 -2 65 -16 69
-16 82 -3 18 17 16 31 -3 42 -14 8 -10 12 22 22 21 7 42 18 46 24 5 8 10 8 19
-1 8 -8 4 -15 -19 -27 -16 -8 -32 -23 -36 -32 -6 -15 -4 -15 16 -2 13 8 35 18
49 21 15 4 42 24 60 46 39 45 49 49 49 22z m-50 5 c0 -3 -7 -12 -16 -20 -19
-20 -40 -11 -23 10 10 13 39 20 39 10z m-6258 -35 c206 -15 272 -23 290 -35
26 -19 138 -22 169 -6 13 8 63 8 162 1 78 -6 216 -15 307 -22 151 -10 168 -13
203 -36 20 -14 37 -26 37 -27 0 0 -294 -1 -652 -1 -359 0 -713 -4 -786 -8
l-132 -8 42 80 c36 68 47 81 68 81 14 0 145 -9 292 -19z m3657 -48 c-1 -34 -2
-35 -9 -13 -11 36 -11 50 0 50 6 0 10 -17 9 -37z m-27 -70 c3 -63 1 -73 -13
-73 -9 0 -20 7 -23 16 -4 10 -2 13 7 9 6 -4 2 2 -9 12 -12 10 -31 36 -42 58
l-20 40 41 16 c51 20 54 18 59 -78z m3734 77 c85 -33 -116 -112 -356 -141
-117 -14 -579 -19 -624 -6 -59 16 -3 27 144 27 225 0 487 34 532 69 13 10 40
21 61 25 36 7 43 2 38 -28 -1 -5 5 -6 14 -2 9 3 20 6 24 6 4 0 8 7 8 15 0 8
-4 12 -8 10 -4 -3 -9 2 -13 10 -7 20 10 28 33 15 11 -5 28 -10 38 -10 12 1 9
5 -12 15 -29 14 -27 15 33 9 35 -3 75 -9 88 -14z m-1070 -30 c-1 -23 -5 -30
-21 -30 -43 0 -48 16 -13 38 18 11 34 21 34 21 1 1 1 -12 0 -29z m-7585 -37
c13 -16 12 -17 -3 -4 -17 13 -22 21 -14 21 2 0 10 -8 17 -17z m4969 -8 c0 -8
-4 -15 -10 -15 -5 0 -10 7 -10 15 0 8 5 15 10 15 6 0 10 -7 10 -15z m-1560
-29 c285 -22 305 -25 318 -45 13 -19 24 -21 100 -21 59 0 90 4 101 14 14 12
48 12 251 -4 129 -11 260 -19 291 -20 43 0 58 -4 63 -16 4 -9 5 -18 3 -20 -4
-4 -639 31 -847 46 -231 18 -561 51 -660 67 -30 5 -32 7 -15 13 30 13 63 11
395 -14z m1309 -158 l33 -43 -35 38 c-32 35 -97 145 -97 163 0 5 15 -19 34
-53 18 -33 47 -81 65 -105z m338 70 c-3 -8 -6 -5 -6 6 -1 11 2 17 5 13 3 -3 4
-12 1 -19z m1043 -113 c0 -8 -9 -15 -20 -15 -13 0 -18 5 -14 15 4 8 12 15 20
15 8 0 14 -7 14 -15z m1077 -61 c-3 -3 -12 -4 -19 -1 -8 3 -5 6 6 6 11 1 17
-2 13 -5z"/>
<path d="M1967 3070 c15 -14 196 -19 226 -7 23 10 7 12 -103 13 -72 1 -128 -2
-123 -6z"/>
<path d="M8252 2731 c-11 -6 -9 -9 7 -14 11 -3 25 1 32 9 9 11 8 14 -7 14 -11
0 -25 -4 -32 -9z"/>
<path d="M8128 2723 c6 -2 18 -2 25 0 6 3 1 5 -13 5 -14 0 -19 -2 -12 -5z"/>
<path d="M8335 2721 c-3 -6 1 -11 9 -11 9 0 16 -4 16 -10 0 -5 -9 -10 -20 -10
-11 0 -20 -4 -20 -9 0 -9 153 -7 180 2 8 3 22 8 30 10 8 3 0 6 -18 6 -18 1
-41 5 -50 10 -29 15 -119 24 -127 12z"/>
<path d="M8287 2673 c-19 -31 19 -55 53 -33 12 8 9 10 -12 10 -17 0 -28 6 -30
18 -2 11 -6 13 -11 5z"/>
<path d="M8508 2663 c7 -3 16 -2 19 1 4 3 -2 6 -13 5 -11 0 -14 -3 -6 -6z"/>
<path d="M8376 2635 c7 -17 65 -28 78 -15 7 7 1 10 -18 10 -15 0 -25 3 -23 8
3 4 -5 8 -18 8 -15 1 -22 -3 -19 -11z"/>
<path d="M8270 2623 c0 -7 -8 -13 -17 -13 -13 0 -9 -5 10 -15 19 -10 40 -12
70 -6 l42 7 -45 8 c-24 4 -48 12 -52 19 -6 9 -8 9 -8 0z"/>
<path d="M8840 2586 c0 -2 7 -7 16 -10 8 -3 12 -2 9 4 -6 10 -25 14 -25 6z"/>
<path d="M8830 2549 c0 -5 9 -9 20 -9 11 0 20 2 20 4 0 2 -9 6 -20 9 -11 3
-20 1 -20 -4z"/>
<path d="M7997 2354 c-3 -4 9 -36 27 -73 18 -36 38 -77 44 -91 8 -18 11 -20
11 -7 1 9 -3 25 -8 35 -11 20 -23 51 -27 71 -1 7 -12 22 -23 33 -12 10 -19 23
-16 29 7 10 2 12 -8 3z"/>
<path d="M8110 2072 c0 -15 4 -20 16 -15 9 3 12 9 7 12 -4 3 -11 10 -15 15 -5
5 -8 0 -8 -12z"/>
<path d="M6820 1630 c0 -5 5 -10 11 -10 5 0 7 5 4 10 -3 6 -8 10 -11 10 -2 0
-4 -4 -4 -10z"/>
<path d="M6872 1500 c0 -14 2 -19 5 -12 2 6 2 18 0 25 -3 6 -5 1 -5 -13z"/>
<path d="M10395 1460 c-25 -11 1 -11 35 0 20 6 21 8 5 8 -11 0 -29 -3 -40 -8z"/>
<path d="M2452 3578 c-5 -7 -12 -22 -14 -33 -2 -15 3 -20 24 -21 24 -2 26 0
19 19 -5 12 -9 26 -9 30 -1 16 -9 18 -20 5z"/>
<path d="M2310 3560 c0 -5 5 -10 11 -10 5 0 7 5 4 10 -3 6 -8 10 -11 10 -2 0
-4 -4 -4 -10z"/>
<path d="M7248 3383 c6 -2 18 -2 25 0 6 3 1 5 -13 5 -14 0 -19 -2 -12 -5z"/>
<path d="M7483 3363 c15 -2 39 -2 55 0 15 2 2 4 -28 4 -30 0 -43 -2 -27 -4z"/>
<path d="M2168 3353 c6 -2 18 -2 25 0 6 3 1 5 -13 5 -14 0 -19 -2 -12 -5z"/>
<path d="M2253 3353 c9 -2 25 -2 35 0 9 3 1 5 -18 5 -19 0 -27 -2 -17 -5z"/>
<path d="M2333 3353 c9 -2 23 -2 30 0 6 3 -1 5 -18 5 -16 0 -22 -2 -12 -5z"/>
<path d="M7718 3353 c7 -3 16 -2 19 1 4 3 -2 6 -13 5 -11 0 -14 -3 -6 -6z"/>
<path d="M7888 3343 c6 -2 18 -2 25 0 6 3 1 5 -13 5 -14 0 -19 -2 -12 -5z"/>
<path d="M8058 3333 c12 -2 32 -2 45 0 12 2 2 4 -23 4 -25 0 -35 -2 -22 -4z"/>
<path d="M8488 3283 c7 -3 16 -2 19 1 4 3 -2 6 -13 5 -11 0 -14 -3 -6 -6z"/>
<path d="M8533 3283 c9 -2 23 -2 30 0 6 3 -1 5 -18 5 -16 0 -22 -2 -12 -5z"/>
<path d="M9040 3270 c0 -5 5 -10 11 -10 5 0 7 5 4 10 -3 6 -8 10 -11 10 -2 0
-4 -4 -4 -10z"/>
<path d="M6533 3203 c15 -2 37 -2 50 0 12 2 0 4 -28 4 -27 0 -38 -2 -22 -4z"/>
<path d="M6633 3193 c15 -2 37 -2 50 0 12 2 0 4 -28 4 -27 0 -38 -2 -22 -4z"/>
<path d="M6743 3183 c9 -2 23 -2 30 0 6 3 -1 5 -18 5 -16 0 -22 -2 -12 -5z"/>
<path d="M6838 3173 c12 -2 32 -2 45 0 12 2 2 4 -23 4 -25 0 -35 -2 -22 -4z"/>
<path d="M6948 3163 c6 -2 18 -2 25 0 6 3 1 5 -13 5 -14 0 -19 -2 -12 -5z"/>
<path d="M7033 3153 c9 -2 23 -2 30 0 6 3 -1 5 -18 5 -16 0 -22 -2 -12 -5z"/>
<path d="M9408 3153 c6 -2 18 -2 25 0 6 3 1 5 -13 5 -14 0 -19 -2 -12 -5z"/>
<path d="M9758 3063 c7 -3 16 -2 19 1 4 3 -2 6 -13 5 -11 0 -14 -3 -6 -6z"/>
<path d="M9870 3030 c8 -5 22 -9 30 -9 10 0 8 3 -5 9 -27 12 -43 12 -25 0z"/>
<path d="M10030 2976 c38 -13 54 -11 30 4 -8 6 -26 10 -40 9 -22 0 -20 -2 10
-13z"/>
<path d="M10096 2961 c-3 -4 7 -13 22 -20 23 -10 25 -10 10 2 -10 8 -15 17
-11 20 3 4 1 7 -5 7 -6 0 -13 -4 -16 -9z"/>
<path d="M10260 2863 l25 -18 -30 -6 c-23 -5 -16 -7 27 -8 31 0 60 -5 63 -11
3 -5 16 -10 28 -9 21 0 21 1 -3 11 -14 6 -47 21 -73 34 -58 28 -71 31 -37 7z"/>
<path d="M9683 2833 c9 -2 25 -2 35 0 9 3 1 5 -18 5 -19 0 -27 -2 -17 -5z"/>
<path d="M9773 2833 c9 -2 25 -2 35 0 9 3 1 5 -18 5 -19 0 -27 -2 -17 -5z"/>
<path d="M9403 2813 c15 -2 39 -2 55 0 15 2 2 4 -28 4 -30 0 -43 -2 -27 -4z"/>
<path d="M10408 2813 c7 -3 16 -2 19 1 4 3 -2 6 -13 5 -11 0 -14 -3 -6 -6z"/>
<path d="M9298 2803 c6 -2 18 -2 25 0 6 3 1 5 -13 5 -14 0 -19 -2 -12 -5z"/>
<path d="M9203 2793 c9 -2 23 -2 30 0 6 3 -1 5 -18 5 -16 0 -22 -2 -12 -5z"/>
<path d="M9103 2783 c9 -2 23 -2 30 0 6 3 -1 5 -18 5 -16 0 -22 -2 -12 -5z"/>
<path d="M9013 2773 c9 -2 23 -2 30 0 6 3 -1 5 -18 5 -16 0 -22 -2 -12 -5z"/>
<path d="M8943 2763 c9 -2 23 -2 30 0 6 3 -1 5 -18 5 -16 0 -22 -2 -12 -5z"/>
<path d="M10214 2721 c4 -6 0 -11 -10 -11 -16 0 -16 -1 2 -15 10 -8 23 -15 27
-15 14 0 3 43 -12 48 -8 3 -11 0 -7 -7z"/>
<path d="M10373 2679 c-29 -9 -55 -29 -36 -29 4 0 7 -85 5 -189 l-3 -188 43
-11 c46 -10 118 -5 118 9 0 5 7 6 15 3 8 -4 15 -1 15 5 0 6 -4 11 -10 11 -23
0 -7 18 21 24 17 3 28 10 24 16 -4 6 7 13 24 16 25 5 31 12 36 46 6 31 3 42
-11 52 -9 7 -14 18 -10 24 4 7 1 12 -8 12 -23 0 -19 17 5 23 16 4 19 11 14 26
-4 14 -2 21 7 21 9 1 7 5 -5 14 -14 11 -16 19 -7 41 6 14 7 31 4 37 -5 7 -2 8
6 3 8 -5 11 -3 8 6 -11 32 -177 50 -255 28z m196 -15 c61 -13 21 -19 -96 -15
-75 2 -109 6 -93 11 31 10 147 12 189 4z"/>
<path d="M9686 2669 c-71 -11 -83 -19 -30 -20 40 -1 39 -3 -8 -13 -16 -4 -28
-11 -28 -17 0 -6 4 -8 9 -5 4 3 6 -6 3 -19 -2 -14 -8 -22 -13 -19 -5 3 -9 -2
-9 -11 0 -9 4 -14 9 -11 4 3 16 -23 25 -58 23 -82 57 -155 87 -183 13 -12 51
-29 84 -38 78 -21 195 -34 195 -22 0 9 22 7 60 -5 8 -3 12 -3 7 -1 -17 10 7
23 43 23 54 0 70 8 70 36 0 27 0 27 34 14 17 -6 26 -6 26 0 0 6 -6 10 -14 10
-22 0 -26 26 -11 70 8 24 10 42 4 45 -5 4 -9 21 -9 40 0 19 -5 46 -12 60 -10
22 -9 28 3 36 12 8 10 13 -10 29 -39 33 -18 32 32 -1 58 -38 64 -63 47 -207
-14 -113 -16 -159 -8 -167 10 -10 217 -10 227 0 7 7 -13 9 -63 7 -106 -6 -106
-6 -108 186 0 86 0 165 0 175 2 17 1 17 -14 3 -16 -17 -26 -14 -59 15 -51 46
-90 53 -305 55 -113 2 -232 -2 -264 -7z m210 -8 c-5 -8 -56 -3 -56 5 0 2 14 4
31 4 16 0 28 -4 25 -9z m-104 -14 c-31 -7 -46 -7 -54 1 -9 9 1 12 43 11 l54
-1 -43 -11z m308 -3 c0 -2 -7 -4 -15 -4 -8 0 -15 4 -15 10 0 5 7 7 15 4 8 -4
15 -8 15 -10z"/>
<path d="M10652 2415 c0 -16 2 -22 5 -12 2 9 2 23 0 30 -3 6 -5 -1 -5 -18z"/>
<path d="M9599 2347 c18 -23 124 -85 159 -93 35 -8 93 -15 67 -8 -61 16 -183
73 -220 103 -18 15 -19 15 -6 -2z"/>
</g>
</svg>
